<svg xmlns="http://www.w3.org/2000/svg" viewBox="0 0 512 512">
  <defs>
    <linearGradient id="bg" x1="0%" y1="0%" x2="100%" y2="100%">
      <stop offset="0%" style="stop-color:#6366f1"/>
      <stop offset="100%" style="stop-color:#8b5cf6"/>
    </linearGradient>
  </defs>
  <rect width="512" height="512" rx="96" fill="url(#bg)"/>
  <path d="M256 120c-44 0-80 36-80 80 0 60 80 152 80 152s80-92 80-152c0-44-36-80-80-80zm0 112c-17.7 0-32-14.3-32-32s14.3-32 32-32 32 14.3 32 32-14.3 32-32 32z" fill="white"/>
  <path d="M160 360h192v24H160z" fill="white" opacity="0.8"/>
  <path d="M192 400h128v16H192z" fill="white" opacity="0.6"/>
</svg>
